<svg width="150" height="41" viewBox="0 0 150 41" fill="none" xmlns="http://www.w3.org/2000/svg">
<g clip-path="url(#clip0_188_712)">
<path d="M19.6485 9.36074C21.6956 9.16411 23.1367 10.4026 23.1254 12.4618C23.1167 14.0759 20.672 15.9979 19.545 16.9747C21.4033 18.772 21.7054 19.0604 20.7071 21.6389C20.8091 21.6786 20.9095 21.7223 21.0081 21.7701C23.2022 22.8217 23.5511 24.0984 22.5144 26.2375C25.6078 27.6031 24.971 30.0371 22.8706 32.0263C20.3107 34.4507 17.2641 38.577 14.1471 40.1744C13.3952 40.5518 12.569 40.7575 11.728 40.7765C8.73156 40.8694 6.49052 38.3491 4.4255 36.4201C2.10894 34.3127 0.130968 32.1652 0.0552874 28.8077C-0.0294853 25.0491 0.0302846 21.2829 0.0137847 17.5232C0.00923876 16.4694 -0.0912759 14.0322 0.326526 13.1714C0.609719 12.5926 1.11137 12.1502 1.72094 11.9417C2.42842 11.7064 3.48778 11.7023 4.17489 12.0633C6.05117 13.049 6.03559 15.6668 6.40937 17.5065C6.57664 18.3301 6.71832 19.1397 6.89325 19.9606C6.97137 20.3271 6.92482 20.7357 7.03468 21.0753C7.67388 21.1181 9.0417 19.4276 9.51548 18.9502L15.0128 13.3091C16.2459 12.0322 17.9912 9.89824 19.6485 9.36074ZM15.4906 37.8711C17.2324 36.3271 18.8785 34.5991 20.4606 32.8908C21.6754 31.5789 23.2282 30.3679 23.6372 28.5823C23.3859 28.1735 23.2873 27.8889 22.7949 27.6918C21.942 27.3503 20.5373 28.8686 19.9869 28.8107C18.9803 27.9022 21.7707 26.1341 21.888 24.963C22.011 23.7341 21.752 23.0366 20.365 22.9106C19.0184 22.7953 17.4844 26.4096 16.4224 25.6193C15.859 23.7739 22.4459 20.5421 19.3155 18.3887C17.7969 17.3441 14.4158 23.5959 13.3752 21.939C13.3665 21.4477 13.6857 21.1794 14.0181 20.842C16.4747 18.3486 19.1014 16.0026 21.536 13.4952C21.8019 13.2213 22.0261 12.5448 22.0244 12.1762C22.0253 11.7536 21.8515 11.3492 21.5444 11.059C21.1628 10.7012 20.7623 10.5471 20.2605 10.4568C18.6749 10.8163 17.3825 12.5196 16.2613 13.6665C14.438 15.5125 12.6343 17.3777 10.8505 19.2619C9.69799 20.484 8.53138 21.7327 7.32107 22.8942C6.62125 23.5656 6.20514 22.8042 6.08812 22.1403C5.77252 20.3494 5.49859 18.5514 5.18096 16.7608C4.88548 15.0893 4.65153 12.5506 2.28724 13.0687C1.50021 13.2413 1.08956 13.9632 1.02533 14.7456C0.91682 19.1114 0.985935 23.5365 1.00698 27.9008C1.02853 32.3753 4.2259 34.6579 7.18806 37.4098C10.1228 40.1362 12.4048 40.4407 15.4906 37.8711Z" fill="white"/>
<path d="M63.6773 15.716C69.1431 14.788 74.3237 18.4752 75.2387 23.9447C76.1537 29.4142 72.4561 34.5879 66.986 35.4907C61.5337 36.3907 56.382 32.7062 55.4697 27.2544C54.5576 21.8026 58.2292 16.641 63.6773 15.716ZM66.1279 33.0334C70.2384 32.6027 73.2194 28.9175 72.7827 24.8066C72.3461 20.6956 68.6575 17.7191 64.5483 18.162C60.4478 18.6039 57.4799 22.2842 57.9156 26.3866C58.3513 30.4889 62.0261 33.4632 66.1279 33.0334Z" fill="white"/>
<path d="M34.3353 16.0982C34.4329 16.0933 34.5305 16.09 34.6282 16.0883L39.7833 16.0634C43.5055 16.061 47.0257 16.0195 49.8776 18.8712C53.6155 22.6089 53.443 28.6957 49.8105 32.3949C46.0802 36.1719 40.0765 34.8781 35.3212 35.1094C34.9993 35.1251 34.6699 35.1238 34.3464 35.1348L34.3353 16.0982ZM37.007 32.7317C40.8833 32.539 44.7927 33.4162 47.8287 30.7406C50.5336 28.1065 50.718 23.4451 48.0758 20.6744C46.543 19.0672 44.2648 18.5291 42.1054 18.5168L36.9599 18.5187C37.0384 20.4068 36.9849 22.4839 36.9776 24.3881C36.9626 27.1694 36.9724 29.9507 37.007 32.7317Z" fill="white"/>
<path d="M99.7443 16.128C101.302 15.9946 102.828 16.1046 104.474 16.0682C108.701 15.9747 115.755 15.6401 114.895 21.9399C114.707 23.3132 113.69 24.2485 112.567 24.9972C113.912 25.7046 114.998 26.2777 115.601 27.7855C116.182 29.2406 116.064 30.8243 115.454 32.2494C113.37 35.6332 108.912 35.1177 105.457 35.1112C103.521 35.0946 101.586 35.0999 99.6517 35.1272C99.671 33.2342 99.5641 16.5192 99.7443 16.128ZM102.297 32.8212C104.137 32.7306 106.003 32.8534 107.847 32.8418C109.456 32.8318 110.988 32.9303 112.355 31.9243C113.075 31.1963 113.321 30.6666 113.319 29.6356C113.315 26.11 109.34 26.381 106.85 26.4104C105.396 26.4276 103.921 26.4031 102.466 26.4392C102.405 26.4407 102.345 26.4425 102.284 26.4448L102.297 32.8212ZM102.3 24.1463C105.1 23.9904 109.158 24.6537 111.352 23.3192C111.953 22.7159 112.39 22.1004 112.387 21.2031C112.389 20.5303 112.118 19.8855 111.636 19.4164C110.601 18.407 108.928 18.3208 107.569 18.3374C106.041 18.3559 104.509 18.3313 102.981 18.3589C102.745 18.3646 102.509 18.3748 102.272 18.3893C102.292 20.1857 102.218 22.4195 102.3 24.1463Z" fill="white"/>
<path d="M85.059 16.9541C85.352 15.773 85.9968 16.037 87.0532 16.0767C87.9733 16.0821 88.0937 16.0519 88.4843 16.9238C91.0308 22.6102 93.6303 28.2753 96.2323 33.9365C96.399 34.2982 96.5993 34.6847 96.7407 35.0526C95.9806 35.162 94.7516 35.135 93.967 35.1035L91.9054 30.2765C90.7303 30.2008 89.2234 30.2468 88.0255 30.2515C85.9025 30.2645 83.7795 30.2645 81.6564 30.2514C80.9754 31.8742 80.2548 33.4727 79.5595 35.0886C78.6428 35.1113 77.7505 35.1381 76.8329 35.1141C77.2344 33.9479 78.1966 31.9984 78.737 30.8206L82.0714 23.5114L84.1179 18.9675C84.2761 18.6185 84.8999 17.1957 85.059 16.9541ZM82.6868 28.1217C84.4655 28.0048 85.4084 28.086 87.1324 28.1014C88.4877 28.021 89.5618 28.0263 90.9197 28.0837L88.1636 21.9488C87.8816 21.3149 87.1282 19.248 86.6803 18.9758C85.9875 20.3941 85.3048 22.0567 84.6642 23.5173C84.1204 24.7578 83.0362 26.8835 82.6868 28.1217Z" fill="white"/>
<path d="M85.0593 16.9541C85.3523 15.773 85.9971 16.037 87.0536 16.0767C86.6445 16.234 86.2353 16.3904 85.8001 16.4466C85.2799 16.5137 85.3716 16.6967 85.0593 16.9541Z" fill="#0C3264"/>
<path d="M136.632 16.1007C138.076 16.0093 140.061 16.0586 141.528 16.0606L150.059 16.0837C150.12 16.8356 150.085 17.7619 150.055 18.5143L139.264 18.5382C139.384 20.0866 139.312 22.5227 139.311 24.1371C141.594 24.0537 143.93 24.1647 146.219 24.1117C147.07 24.092 147.979 24.0987 148.826 24.1483C148.886 24.8004 148.876 25.8558 148.862 26.51C148.244 26.5655 146.801 26.5238 146.086 26.5248L140.054 26.5147L139.309 26.5124C139.299 28.5069 139.245 30.7062 139.308 32.6847C142.74 32.5707 146.886 32.6587 150.35 32.6706C150.41 33.3664 150.398 34.3615 150.407 35.0839C148.942 35.1628 147.06 35.1132 145.567 35.1128L136.625 35.1139L136.632 16.1007Z" fill="white"/>
<path d="M120.224 16.0871C121.106 16.0706 121.988 16.0718 122.869 16.0908C122.987 19.9064 122.768 24.051 122.856 27.9042C122.891 29.4762 122.786 31.1715 122.915 32.7271C125.502 32.5746 129.263 32.6496 131.909 32.6805C132.358 32.6786 132.816 32.6715 133.264 32.6754C133.297 33.4004 133.506 34.5322 133.125 35.0134C132.889 35.182 132.5 35.117 132.194 35.1026C131.005 35.1511 129.421 35.1061 128.195 35.106L120.224 35.1152L120.224 16.0871Z" fill="white"/>
<path d="M131.909 32.681C132.358 32.6791 132.816 32.672 133.264 32.676C133.297 33.401 133.507 34.5328 133.125 35.0139C132.89 35.1825 132.501 35.1176 132.194 35.1032C132.416 35.052 132.491 35.0261 132.7 34.9366C133.098 34.5327 132.999 33.6218 133.045 32.9708C132.72 32.9718 132.148 32.9689 131.877 32.7982L131.909 32.681Z" fill="#0C3264"/>
<path d="M16.7868 4.1218L16.8413 4.11949C17.1987 4.10607 17.3515 4.11835 17.6086 4.35649C17.6649 4.47008 17.7128 4.65062 17.6742 4.75175C17.3062 5.71884 13.1896 10.3634 12.6991 10.7273C12.3066 10.8708 12.1271 11.0036 11.8327 10.6562C11.7585 10.2287 12.0774 9.37467 12.369 9.11524C13.3988 8.19884 15.8283 4.71975 16.7868 4.1218Z" fill="white"/>
<path d="M1.8446 5.1969C2.69693 5.47292 7.00596 9.04253 7.78699 9.95034C8.01773 10.2185 8.08777 10.4909 8.02792 10.8502C7.85543 11.107 7.90644 11.0314 7.57502 11.1608C7.44295 11.1174 7.14293 10.9931 7.01994 10.8841C5.18792 9.26062 3.05419 7.85297 1.32605 6.14757C1.22899 6.05175 1.27807 5.79054 1.30467 5.66575C1.47976 5.37508 1.53583 5.34055 1.8446 5.1969Z" fill="white"/>
<path d="M9.25463 0.22759C9.62906 0.210075 10.1841 0.191778 10.244 0.672158C10.4322 2.18304 10.3438 3.80067 10.348 5.32841C10.3507 6.37609 10.4641 7.8037 9.95998 8.69896C9.86973 8.72641 9.74439 8.71168 9.6459 8.70671C9.27449 8.47211 9.02608 7.66712 9.07515 7.27481C9.275 5.67702 8.81554 1.57525 9.25463 0.22759Z" fill="white"/>
</g>
<defs>
<clipPath id="clip0_188_712">
<rect width="150" height="41" rx="6" fill="white"/>
</clipPath>
</defs>
</svg>
