<svg width="34" height="34" viewBox="0 0 34 34" fill="none" xmlns="http://www.w3.org/2000/svg">
<rect width="34" height="34" rx="17" fill="#F4E88E"/>
<path d="M12.62 15.79C14.06 18.62 16.38 20.93 19.21 22.38L21.41 20.18C21.68 19.91 22.08 19.82 22.43 19.94C23.55 20.31 24.76 20.51 26 20.51C26.55 20.51 27 20.96 27 21.51V25C27 25.55 26.55 26 26 26C16.61 26 9 18.39 9 9C9 8.45 9.45 8 10 8H13.5C14.05 8 14.5 8.45 14.5 9C14.5 10.25 14.7 11.45 15.07 12.57C15.18 12.92 15.1 13.31 14.82 13.59L12.62 15.79Z" fill="black"/>
</svg>
